<svg width="600" height="200" viewbox = "0 0 600 200"  xmlns="http://www.w3.org/2000/svg">

<!--
<json>
{
    "imgurl": "",
    "imgw": 4.743971328437736,
    "imgleft": -2.2873205904167726,
    "imgtop": -3.171985664218851,
    "imgangle": 0,
    "svgwidth": 600,
    "svgheight": 200,
    "unit": 194.87171000000015,
    "x0": 684,
    "y0": 399,
    "x0rel": 0,
    "y0rel": 0,
    "glyph": "0336,0336,0332,0336,0332,0336,0330,0337,0337,0337,0337,0336,0331,0334,0330,0336,0250,0335,0333,0334,0331,0331,0331,0250,0331,0331,0331,0331,0250,0335,0335,0331,0332,0332,0330,0330,0331,0331,0331,0331,0331,0331,0331,0331,0331,0330,0222,0330,0330,0330,0330,0222,0330,0330,0330,0330,0222,",
    "table": []
}
</json>
-->
	<path d = "M129 185 L105 161 L105 137 L129 161 L129 185 Z" stroke = "black" stroke-width = "1" fill = "black" />	<path d = "M129 161 L105 137 L105 112 L129 137 L129 161 Z" stroke = "yellow" stroke-width = "1" fill = "yellow" />	<path d = "M129 137 L105 112 L105 88 L129 112 L129 137 Z" stroke = "black" stroke-width = "1" fill = "black" />	<path d = "M129 112 L105 88 L105 63 L129 88 L129 112 Z" stroke = "yellow" stroke-width = "1" fill = "yellow" />	<path d = "M129 88 L105 63 L105 39 L129 63 L129 88 Z" stroke = "black" stroke-width = "1" fill = "black" />	<path d = "M129 63 L105 39 L105 15 L129 39 L129 63 Z" stroke = "yellow" stroke-width = "1" fill = "yellow" />	<path d = "M129 39 L105 15 L129 15 L129 39 Z" stroke = "black" stroke-width = "1" fill = "black" />	<path d = "M129 185 L105 185 L105 161 L129 185 Z" stroke = "yellow" stroke-width = "1" fill = "yellow" />	<path d = "M56 185 L32 161 L32 137 L56 161 L56 185 Z" stroke = "black" stroke-width = "1" fill = "black" />	<path d = "M56 161 L32 137 L32 112 L56 137 L56 161 Z" stroke = "yellow" stroke-width = "1" fill = "yellow" />	<path d = "M56 137 L32 112 L32 88 L56 112 L56 137 Z" stroke = "black" stroke-width = "1" fill = "black" />	<path d = "M56 112 L32 88 L32 63 L56 88 L56 112 Z" stroke = "yellow" stroke-width = "1" fill = "yellow" />	<path d = "M56 88 L32 63 L32 39 L56 63 L56 88 Z" stroke = "black" stroke-width = "1" fill = "black" />	<path d = "M56 63 L32 39 L32 15 L56 39 L56 63 Z" stroke = "yellow" stroke-width = "1" fill = "yellow" />	<path d = "M56 39 L32 15 L56 15 L56 39 Z" stroke = "black" stroke-width = "1" fill = "black" />	<path d = "M56 185 L32 185 L32 161 L56 185 Z" stroke = "yellow" stroke-width = "1" fill = "yellow" />	<path d = "M81 185 L93 185 L87 175 L81 164 L75 175 L69 185 L81 185 Z" stroke = "black" stroke-width = "1" fill = "black" />	<path d = "M81 137 L93 137 L87 126 L81 115 L75 126 L69 137 L81 137 Z" stroke = "black" stroke-width = "1" fill = "black" />	<path d = "M81 88 L93 88 L87 77 L81 67 L75 77 L69 88 L81 88 Z" stroke = "black" stroke-width = "1" fill = "black" />	<path d = "M81 39 L93 39 L87 29 L81 18 L75 29 L69 39 L81 39 Z" stroke = "black" stroke-width = "1" fill = "black" />	<path d = "M324 185 L300 161 L300 137 L324 161 L324 185 Z" stroke = "black" stroke-width = "1" fill = "black" />	<path d = "M324 161 L300 137 L300 112 L324 137 L324 161 Z" stroke = "yellow" stroke-width = "1" fill = "yellow" />	<path d = "M324 137 L300 112 L300 88 L324 112 L324 137 Z" stroke = "black" stroke-width = "1" fill = "black" />	<path d = "M324 112 L300 88 L300 63 L324 88 L324 112 Z" stroke = "yellow" stroke-width = "1" fill = "yellow" />	<path d = "M324 88 L300 63 L300 39 L324 63 L324 88 Z" stroke = "black" stroke-width = "1" fill = "black" />	<path d = "M324 63 L300 39 L300 15 L324 39 L324 63 Z" stroke = "yellow" stroke-width = "1" fill = "yellow" />	<path d = "M324 39 L300 15 L324 15 L324 39 Z" stroke = "black" stroke-width = "1" fill = "black" />	<path d = "M324 185 L300 185 L300 161 L324 185 Z" stroke = "yellow" stroke-width = "1" fill = "yellow" />	<path d = "M251 185 L227 161 L227 137 L251 161 L251 185 Z" stroke = "black" stroke-width = "1" fill = "black" />	<path d = "M251 161 L227 137 L227 112 L251 137 L251 161 Z" stroke = "yellow" stroke-width = "1" fill = "yellow" />	<path d = "M251 137 L227 112 L227 88 L251 112 L251 137 Z" stroke = "black" stroke-width = "1" fill = "black" />	<path d = "M251 112 L227 88 L227 63 L251 88 L251 112 Z" stroke = "yellow" stroke-width = "1" fill = "yellow" />	<path d = "M251 88 L227 63 L227 39 L251 63 L251 88 Z" stroke = "black" stroke-width = "1" fill = "black" />	<path d = "M251 63 L227 39 L227 15 L251 39 L251 63 Z" stroke = "yellow" stroke-width = "1" fill = "yellow" />	<path d = "M251 39 L227 15 L251 15 L251 39 Z" stroke = "black" stroke-width = "1" fill = "black" />	<path d = "M251 185 L227 185 L227 161 L251 185 Z" stroke = "yellow" stroke-width = "1" fill = "yellow" />	<path d = "M276 185 L288 185 L282 175 L276 164 L270 175 L263 185 L276 185 Z" stroke = "black" stroke-width = "1" fill = "black" />	<path d = "M276 137 L288 137 L282 126 L276 115 L270 126 L263 137 L276 137 Z" stroke = "black" stroke-width = "1" fill = "black" />	<path d = "M276 88 L288 88 L282 77 L276 67 L270 77 L263 88 L276 88 Z" stroke = "black" stroke-width = "1" fill = "black" />	<path d = "M276 39 L288 39 L282 29 L276 18 L270 29 L263 39 L276 39 Z" stroke = "black" stroke-width = "1" fill = "black" />	<path d = "M519 185 L495 161 L495 137 L519 161 L519 185 Z" stroke = "black" stroke-width = "1" fill = "black" />	<path d = "M519 161 L495 137 L495 112 L519 137 L519 161 Z" stroke = "yellow" stroke-width = "1" fill = "yellow" />	<path d = "M519 137 L495 112 L495 88 L519 112 L519 137 Z" stroke = "black" stroke-width = "1" fill = "black" />	<path d = "M519 112 L495 88 L495 63 L519 88 L519 112 Z" stroke = "yellow" stroke-width = "1" fill = "yellow" />	<path d = "M519 88 L495 63 L495 39 L519 63 L519 88 Z" stroke = "black" stroke-width = "1" fill = "black" />	<path d = "M519 63 L495 39 L495 15 L519 39 L519 63 Z" stroke = "yellow" stroke-width = "1" fill = "yellow" />	<path d = "M519 39 L495 15 L519 15 L519 39 Z" stroke = "black" stroke-width = "1" fill = "black" />	<path d = "M519 185 L495 185 L495 161 L519 185 Z" stroke = "yellow" stroke-width = "1" fill = "yellow" />	<path d = "M446 185 L422 161 L422 137 L446 161 L446 185 Z" stroke = "black" stroke-width = "1" fill = "black" />	<path d = "M446 161 L422 137 L422 112 L446 137 L446 161 Z" stroke = "yellow" stroke-width = "1" fill = "yellow" />	<path d = "M446 137 L422 112 L422 88 L446 112 L446 137 Z" stroke = "black" stroke-width = "1" fill = "black" />	<path d = "M446 112 L422 88 L422 63 L446 88 L446 112 Z" stroke = "yellow" stroke-width = "1" fill = "yellow" />	<path d = "M446 88 L422 63 L422 39 L446 63 L446 88 Z" stroke = "black" stroke-width = "1" fill = "black" />	<path d = "M446 63 L422 39 L422 15 L446 39 L446 63 Z" stroke = "yellow" stroke-width = "1" fill = "yellow" />	<path d = "M446 39 L422 15 L446 15 L446 39 Z" stroke = "black" stroke-width = "1" fill = "black" />	<path d = "M446 185 L422 185 L422 161 L446 185 Z" stroke = "yellow" stroke-width = "1" fill = "yellow" />	<path d = "M471 185 L483 185 L477 175 L471 164 L464 175 L458 185 L471 185 Z" stroke = "black" stroke-width = "1" fill = "black" />	<path d = "M471 137 L483 137 L477 126 L471 115 L464 126 L458 137 L471 137 Z" stroke = "black" stroke-width = "1" fill = "black" />	<path d = "M471 88 L483 88 L477 77 L471 67 L464 77 L458 88 L471 88 Z" stroke = "black" stroke-width = "1" fill = "black" />	<path d = "M471 39 L483 39 L477 29 L471 18 L464 29 L458 39 L471 39 Z" stroke = "black" stroke-width = "1" fill = "black" />	<path d = "M178 88 L178 100 L189 94 L199 88 L189 82 L178 76 L178 88 Z" stroke = "black" stroke-width = "1" fill = "black" />	<path d = "M373 88 L373 100 L384 94 L394 88 L384 82 L373 76 L373 88 Z" stroke = "black" stroke-width = "1" fill = "black" />	<path d = "M568 88 L568 100 L578 94 L589 88 L578 82 L568 76 L568 88 Z" stroke = "black" stroke-width = "1" fill = "black" /></svg>