<svg width="250" height="250" viewbox = "0 0 250 250"  xmlns="http://www.w3.org/2000/svg">

<!--
<json>
{
    "imgurl": "",
    "imgw": 4.743971328437736,
    "imgleft": -2.2873205904167726,
    "imgtop": -3.171985664218851,
    "imgangle": 0,
    "svgwidth": 250,
    "svgheight": 250,
    "unit": 100,
    "x0": 684,
    "y0": 399,
    "x0rel": 0,
    "y0rel": 0,
    "glyph": "0336,0331,0337,0241,",
    "table": []
}
</json>
-->
	<path d = "M25 175 L25 125 L25 75 M25 75           A50 50 0 0 1 75 25L125 25 L175 25 M175 25           A50 50 0 0 1 225 75L225 125 L225 175 M225 175           A50 50 0 0 1 175 225L125 225 L75 225 M74.99999999999999 225           A50 50 0 0 1 24.999999999999986 175" stroke = "black" stroke-width = "6" fill = "none" /><path    d = "M125,100 C103,88 147,37 125,25" fill = "none" stroke-width = "6" stroke = "black" /><path    d = "M147,112 C147,87 212,100 212,75" fill = "none" stroke-width = "6" stroke = "black" /><path    d = "M147,138 C168,125 190,187 212,175" fill = "none" stroke-width = "6" stroke = "black" /><path    d = "M125,150 C147,163 103,213 125,225" fill = "none" stroke-width = "6" stroke = "black" /><path    d = "M103,138 C103,163 38,150 38,175" fill = "none" stroke-width = "6" stroke = "black" /><path    d = "M103,113 C82,125 60,63 38,75" fill = "none" stroke-width = "6" stroke = "black" />    <circle cx="125" cy = "125" r = "12.5" stroke = "black" stroke-width = "6" fill = "black" />
</svg>